<svg width="25" height="27" viewBox="0 0 25 27" fill="none" xmlns="http://www.w3.org/2000/svg">
<g id="bell">
<path id="Vector" d="M18.75 9C18.75 7.20979 18.0915 5.4929 16.9194 4.22703C15.7473 2.96116 14.1576 2.25 12.5 2.25C10.8424 2.25 9.25268 2.96116 8.08058 4.22703C6.90848 5.4929 6.25 7.20979 6.25 9C6.25 16.875 3.125 19.125 3.125 19.125H21.875C21.875 19.125 18.75 16.875 18.75 9Z" stroke="black" stroke-width="2" stroke-linecap="round" stroke-linejoin="round"/>
<path id="Vector_2" d="M14.3019 23.625C14.1188 23.966 13.8559 24.249 13.5397 24.4457C13.2234 24.6425 12.8648 24.746 12.4998 24.746C12.1349 24.746 11.7763 24.6425 11.46 24.4457C11.1438 24.249 10.8809 23.966 10.6978 23.625" stroke="black" stroke-width="2" stroke-linecap="round" stroke-linejoin="round"/>
</g>
</svg>
