<svg width="225" height="221" viewBox="0 0 225 221" fill="none" xmlns="http://www.w3.org/2000/svg">
<g id="Logo">
<g id="Ellipse 2" filter="url(#filter0_d_1_180)">
<ellipse cx="92.5" cy="84" rx="30.5" ry="31" fill="white"/>
</g>
<path id="Vector" d="M91.9906 63.3173L102.603 73.9523C104.702 76.0541 106.131 78.7325 106.711 81.6487C107.291 84.5648 106.994 87.5877 105.859 90.335C104.724 93.0823 102.802 95.4305 100.335 97.0827C97.8676 98.7348 94.9671 99.6167 92 99.6167C89.0329 99.6167 86.1324 98.7348 83.6654 97.0827C81.1985 95.4305 79.2759 93.0823 78.1409 90.335C77.0058 87.5877 76.7094 84.5648 77.2889 81.6487C77.8685 78.7325 79.2981 76.0541 81.3969 73.9523L91.9906 63.3173Z" stroke="black" stroke-width="2" stroke-linecap="round" stroke-linejoin="round"/>
</g>
<defs>
<filter id="filter0_d_1_180" x="-40" y="-45" width="265" height="266" filterUnits="userSpaceOnUse" color-interpolation-filters="sRGB">
<feFlood flood-opacity="0" result="BackgroundImageFix"/>
<feColorMatrix in="SourceAlpha" type="matrix" values="0 0 0 0 0 0 0 0 0 0 0 0 0 0 0 0 0 0 127 0" result="hardAlpha"/>
<feMorphology radius="2" operator="dilate" in="SourceAlpha" result="effect1_dropShadow_1_180"/>
<feOffset dy="4"/>
<feGaussianBlur stdDeviation="50"/>
<feColorMatrix type="matrix" values="0 0 0 0 0.05 0 0 0 0 0.05 0 0 0 0 0.05 0 0 0 0.25 0"/>
<feBlend mode="normal" in2="BackgroundImageFix" result="effect1_dropShadow_1_180"/>
<feBlend mode="normal" in="SourceGraphic" in2="effect1_dropShadow_1_180" result="shape"/>
</filter>
</defs>
</svg>
