<svg xmlns="http://www.w3.org/2000/svg" width="134" height="22" viewBox="0 0 134 22" fill="none">
  <path d="M8.14971 4.29509H9.96139V1.13974C9.64884 1.09674 8.5739 1 7.32201 1C4.70992 1 2.92057 2.643 2.92057 5.66274V8.44186H0.0380859V11.9693H2.92057V20.845H6.45462V11.9701H9.22052L9.65958 8.44269H6.4538V6.01251C6.45462 4.99297 6.72915 4.29509 8.14971 4.29509Z" fill="white"/>
  <path d="M71.9995 4.11613C71.1814 4.475 70.3096 4.71288 69.4008 4.82838C70.3358 4.27013 71.0494 3.39287 71.3849 2.3355C70.5131 2.85525 69.5506 3.22238 68.5249 3.42725C67.6971 2.54588 66.5174 2 65.2304 2C62.7334 2 60.7231 4.02675 60.7231 6.51137C60.7231 6.86888 60.7534 7.21263 60.8276 7.53988C57.078 7.357 53.7601 5.55988 51.5313 2.82225C51.1421 3.49738 50.9139 4.27012 50.9139 5.102C50.9139 6.664 51.7183 8.04862 52.9173 8.85025C52.1926 8.8365 51.4818 8.62613 50.8795 8.29475C50.8795 8.3085 50.8795 8.32638 50.8795 8.34425C50.8795 10.536 52.4429 12.3565 54.493 12.7759C54.1259 12.8763 53.7258 12.9244 53.3105 12.9244C53.0218 12.9244 52.7303 12.9079 52.4566 12.8474C53.041 14.6335 54.6993 15.9466 56.671 15.9893C55.1365 17.1896 53.1881 17.9129 51.0789 17.9129C50.709 17.9129 50.3543 17.8964 49.9995 17.851C51.9974 19.1394 54.3651 19.875 56.9185 19.875C65.218 19.875 69.7555 13 69.7555 7.04075C69.7555 6.84137 69.7486 6.64887 69.739 6.45775C70.6341 5.8225 71.3863 5.02913 71.9995 4.11613Z" fill="white"/>
  <path fill-rule="evenodd" clip-rule="evenodd" d="M118.875 0H127.125C130.921 0 134 3.07862 134 6.875V15.125C134 18.9214 130.921 22 127.125 22H118.875C115.078 22 112 18.9214 112 15.125V6.875C112 3.07862 115.078 0 118.875 0ZM127.125 19.9375C129.778 19.9375 131.937 17.7787 131.937 15.125V6.875C131.937 4.22125 129.778 2.0625 127.125 2.0625H118.875C116.221 2.0625 114.062 4.22125 114.062 6.875V15.125C114.062 17.7787 116.221 19.9375 118.875 19.9375H127.125Z" fill="white"/>
  <path fill-rule="evenodd" clip-rule="evenodd" d="M117.5 11C117.5 7.96263 119.962 5.5 123 5.5C126.037 5.5 128.5 7.96263 128.5 11C128.5 14.0374 126.037 16.5 123 16.5C119.962 16.5 117.5 14.0374 117.5 11ZM119.562 11C119.562 12.8948 121.105 14.4375 123 14.4375C124.894 14.4375 126.437 12.8948 126.437 11C126.437 9.10388 124.894 7.5625 123 7.5625C121.105 7.5625 119.562 9.10388 119.562 11Z" fill="white"/>
  <circle cx="128.912" cy="5.08761" r="0.732875" fill="white"/>
</svg>